# xmcd CD database file
#
# Track frame offsets:
#	150
#	13845
#	39199
#	73023
#	105394
#	128928
#	155063
#	185717
#	212314
#	228839
#	256742
#	274007
#	286894
#	310317
#	322122
#
# Disc length: 4551 seconds
#
# Revision: 1
# Processed by: cddbd v1.5.2PL0 Copyright (c) Steve Scherf et al.
# Submitted via: CDex 1.51
#
DISCID=d011c50f
DTITLE=Wynton Kelly - Nine Classic Albums - CD 4
DYEAR=2015
DGENRE=Jazz
TTITLE0=Someday My Prince Will Come
TTITLE1=Char's Blues
TTITLE2=Temperance
TTITLE3=Weird Lullaby
TTITLE4=On Stage
TTITLE5=Skatin'
TTITLE6=Pot Luck
TTITLE7=Come Rain Or Come Shine
TTITLE8=Make The Man Love Me
TTITLE9=Autumn Leaves
TTITLE10=Surrey With The Fringe On Top
TTITLE11=Joe's Avenue
TTITLE12=Sassy
TTITLE13=Love I've Found You
TTITLE14=Gone With The Wind
EXTD=YEAR: 2015
EXTT0=
EXTT1=
EXTT2=
EXTT3=
EXTT4=
EXTT5=
EXTT6=
EXTT7=
EXTT8=
EXTT9=
EXTT10=
EXTT11=
EXTT12=
EXTT13=
EXTT14=
PLAYORDER=
